<!DOCTYPE svg PUBLIC "-//W3C//DTD SVG 1.1//EN" "http://www.w3.org/Graphics/SVG/1.1/DTD/svg11.dtd">
<!-- Uploaded to: SVG Repo, www.svgrepo.com, Transformed by: SVG Repo Mixer Tools -->
<svg fill="#000000" version="1.1" id="Capa_1" xmlns="http://www.w3.org/2000/svg" xmlns:xlink="http://www.w3.org/1999/xlink" width="800px" height="800px" viewBox="-4.39 -4.39 52.70 52.70" xml:space="preserve" transform="rotate(0)">
<g id="SVGRepo_bgCarrier" stroke-width="0">
<path transform="translate(-4.39, -4.39), scale(1.6468749999999999)" d="M16,31.35149529343471C18.45264507313278,30.80084257313152,18.471428722509934,26.86566772140284,20.55652787054721,25.461727617269467C22.233813857769253,24.332376494672463,24.748948426593604,25.436024448125185,26.437556813868657,24.323673804008465C28.203387020511634,23.160454206994743,29.926212506259294,21.317952238148415,30.05134750793119,19.20712837507359C30.180391416253993,17.030367617228915,28.140043765684762,15.376953427417142,27.08093991519511,13.470847774247376C26.26574246892343,12.003708871797333,25.08216122190617,10.794810440381315,24.50204026879927,9.219849134425983C23.621537629586697,6.829386285041867,24.90812704516062,3.3058762374908017,22.80648318634961,1.8661920281351883C20.86368380440643,0.5353206816874447,18.354499263509247,3.4406739730226876,16,3.395716243889183C13.58325779350536,3.349570023676246,11.401886561310977,0.9778197053003963,9.06717877129201,1.6038483799769363C6.79416340504507,2.2133348447646437,5.106911024696775,4.4077807892052,4.171804859212676,6.567329136713946C3.2731646149077664,8.642662533311599,4.487689313184266,11.05295388464216,4.017728746351285,13.265124777981997C3.5568645679703317,15.434477683626199,1.07156082889191,17.135026215905825,1.4630182079047014,19.317971231374177C1.8500150695960915,21.476042366376365,4.356928443580015,22.50719522511527,5.945961100361277,24.017828473250404C7.357095276685035,25.359340364297648,8.765693986470875,26.608361095675292,10.338721259923071,27.755766435729814C12.167773259309142,29.08992259865966,13.791052696222504,31.84743449603519,16,31.35149529343471" fill="#adb9bd" strokewidth="0"/>
</g>
<g id="SVGRepo_tracerCarrier" stroke-linecap="round" stroke-linejoin="round" stroke="#CCCCCC" stroke-width="0.087832"/>
<g id="SVGRepo_iconCarrier"> <g> <path d="M34.395,0H9.522c-2.762,0-5,2.239-5,5v33.916c0,2.761,2.238,5,5,5h24.871c2.762,0,5-2.239,5-5V5 C39.395,2.239,37.154,0,34.395,0z M9.208,16.855c0-1.172,0.951-2.121,2.121-2.121h0.742c-0.791-0.874-1.277-2.03-1.277-3.304 c0-2.723,2.209-4.931,4.932-4.931c2.725,0,4.932,2.207,4.932,4.932c0,1.272-0.486,2.429-1.279,3.303h0.709 c1.172,0,2.121,0.949,2.121,2.121v3.578c0,1.122-0.875,2.03-1.975,2.106h-9.051c-1.1-0.076-1.975-0.984-1.975-2.106V16.855 L9.208,16.855z M32.708,37.416h-21.5c-1.104,0-2-0.896-2-2s0.896-2,2-2h21.5c1.104,0,2,0.896,2,2S33.812,37.416,32.708,37.416z M32.708,29.916h-21.5c-1.104,0-2-0.896-2-2s0.896-2,2-2h21.5c1.104,0,2,0.896,2,2S33.812,29.916,32.708,29.916z M32.708,22.416 h-6.5c-1.104,0-2-0.896-2-2c0-1.104,0.896-2,2-2h6.5c1.104,0,2,0.896,2,2C34.708,21.52,33.812,22.416,32.708,22.416z"/> </g> </g>
</svg>