<?xml version="1.0" standalone="no"?>
<!DOCTYPE svg PUBLIC "-//W3C//DTD SVG 20010904//EN"
 "http://www.w3.org/TR/2001/REC-SVG-20010904/DTD/svg10.dtd">
<svg version="1.0" xmlns="http://www.w3.org/2000/svg"
 width="2000.000000pt" height="1383.000000pt" viewBox="0 0 2000.000000 1383.000000"
 preserveAspectRatio="xMidYMid meet">

<g transform="translate(0.000000,1383.000000) scale(0.100000,-0.100000)"
fill="#000000" stroke="none">
<path d="M12478 13097 c-108 -166 -460 -711 -783 -1212 -938 -1452 -1934
-2998 -2461 -3821 l-33 -52 387 -263 c213 -145 487 -331 609 -414 138 -93 221
-155 218 -163 -3 -7 -301 -482 -663 -1055 -363 -573 -1174 -1859 -1804 -2857
-630 -998 -1279 -2026 -1442 -2285 l-297 -470 31 -28 c17 -15 34 -27 38 -27
11 0 7463 6388 7476 6408 5 8 -520 371 -976 675 -170 112 -238 163 -234 173 8
21 602 946 2190 3409 223 346 404 630 403 630 -1 1 -380 255 -842 565 -462
310 -1016 682 -1231 826 l-392 263 -194 -302z"/>
</g>
</svg>
